<?xml version="1.0" standalone="no"?>
<!DOCTYPE svg PUBLIC "-//W3C//DTD SVG 20010904//EN"
 "http://www.w3.org/TR/2001/REC-SVG-20010904/DTD/svg10.dtd">
<svg version="1.0" xmlns="http://www.w3.org/2000/svg"
 width="1280.000000pt" height="1280.000000pt" viewBox="0 0 1280.000000 1280.000000"
 preserveAspectRatio="xMidYMid meet">
<g transform="translate(0.000000,1280.000000) scale(0.100000,-0.100000)"
fill="#000000" stroke="none">
<path d="M4431 12594 c-103 -87 -39 -343 100 -398 54 -22 90 -13 128 29 131
150 -81 493 -228 369z"/>
<path d="M4806 12469 c-34 -40 -40 -65 -34 -153 9 -145 112 -278 215 -278 116
0 141 202 44 354 -67 105 -172 141 -225 77z"/>
<path d="M4092 12400 c-106 -65 -40 -264 113 -336 154 -73 262 30 191 182 -30
65 -85 120 -150 150 -62 29 -111 30 -154 4z"/>
<path d="M4513 12090 c-62 -38 -67 -53 -68 -249 -1 -97 -7 -215 -15 -262 -13
-83 -13 -87 9 -133 29 -59 78 -97 135 -103 65 -8 92 2 150 56 87 83 152 117
283 151 142 36 188 210 87 329 -40 47 -164 111 -362 187 -125 49 -171 54 -219
24z"/>
<path d="M4014 12011 c-84 -51 -58 -203 51 -299 78 -68 172 -89 233 -52 110
67 37 279 -122 351 -54 24 -122 24 -162 0z"/>
<path d="M3431 10814 c-103 -87 -39 -343 100 -398 54 -22 90 -13 128 29 131
150 -81 493 -228 369z"/>
<path d="M3806 10689 c-34 -40 -40 -65 -34 -153 9 -145 112 -278 215 -278 116
0 141 202 44 354 -67 105 -172 141 -225 77z"/>
<path d="M3092 10620 c-106 -65 -40 -264 113 -336 154 -73 262 30 191 182 -30
65 -85 120 -150 150 -62 29 -111 30 -154 4z"/>
<path d="M5911 10354 c-103 -87 -39 -343 100 -398 54 -22 90 -13 128 29 131
150 -81 493 -228 369z"/>
<path d="M3513 10310 c-62 -38 -67 -53 -68 -249 -1 -97 -7 -215 -15 -262 -13
-83 -13 -87 9 -133 29 -59 78 -97 135 -103 65 -8 92 2 150 56 87 83 152 117
283 151 142 36 188 210 87 329 -40 47 -164 111 -362 187 -125 49 -171 54 -219
24z"/>
<path d="M6286 10229 c-34 -40 -40 -65 -34 -153 9 -145 112 -278 215 -278 116
0 141 202 44 354 -67 105 -172 141 -225 77z"/>
<path d="M3014 10231 c-84 -51 -58 -203 51 -299 78 -68 172 -89 233 -52 110
67 37 279 -122 351 -54 24 -122 24 -162 0z"/>
<path d="M5572 10160 c-106 -65 -40 -264 113 -336 154 -73 262 30 191 182 -30
65 -85 120 -150 150 -62 29 -111 30 -154 4z"/>
<path d="M5993 9850 c-62 -38 -67 -53 -68 -249 -1 -97 -7 -215 -15 -262 -13
-83 -13 -87 9 -133 29 -59 78 -97 135 -103 65 -8 92 2 150 56 87 83 152 117
283 151 142 36 188 210 87 329 -40 47 -164 111 -362 187 -125 49 -171 54 -219
24z"/>
<path d="M5494 9771 c-84 -51 -58 -203 51 -299 78 -68 172 -89 233 -52 110 67
37 279 -122 351 -54 24 -122 24 -162 0z"/>
<path d="M5611 8054 c-103 -87 -39 -343 100 -398 54 -22 90 -13 128 29 131
150 -81 493 -228 369z"/>
<path d="M5986 7929 c-34 -40 -40 -65 -34 -153 9 -145 112 -278 215 -278 116
0 141 202 44 354 -67 105 -172 141 -225 77z"/>
<path d="M7831 7874 c-103 -87 -39 -343 100 -398 54 -22 90 -13 128 29 131
150 -81 493 -228 369z"/>
<path d="M5272 7860 c-106 -65 -40 -264 113 -336 154 -73 262 30 191 182 -30
65 -85 120 -150 150 -62 29 -111 30 -154 4z"/>
<path d="M8206 7749 c-34 -40 -40 -65 -34 -153 9 -145 112 -278 215 -278 116
0 141 202 44 354 -67 105 -172 141 -225 77z"/>
<path d="M7492 7680 c-106 -65 -40 -264 113 -336 154 -73 262 30 191 182 -30
65 -85 120 -150 150 -62 29 -111 30 -154 4z"/>
<path d="M5693 7550 c-62 -38 -67 -53 -68 -249 -1 -97 -7 -215 -15 -262 -13
-83 -13 -87 9 -133 29 -59 78 -97 135 -103 65 -8 92 2 150 56 87 83 152 117
283 151 142 36 188 210 87 329 -40 47 -164 111 -362 187 -125 49 -171 54 -219
24z"/>
<path d="M5194 7471 c-84 -51 -58 -203 51 -299 78 -68 172 -89 233 -52 110 67
37 279 -122 351 -54 24 -122 24 -162 0z"/>
<path d="M7913 7370 c-62 -38 -67 -53 -68 -249 -1 -97 -7 -215 -15 -262 -13
-83 -13 -87 9 -133 29 -59 78 -97 135 -103 65 -8 92 2 150 56 87 83 152 117
283 151 142 36 188 210 87 329 -40 47 -164 111 -362 187 -125 49 -171 54 -219
24z"/>
<path d="M7414 7291 c-84 -51 -58 -203 51 -299 78 -68 172 -89 233 -52 110 67
37 279 -122 351 -54 24 -122 24 -162 0z"/>
<path d="M9691 5774 c-103 -87 -39 -343 100 -398 54 -22 90 -13 128 29 131
150 -81 493 -228 369z"/>
<path d="M7651 5714 c-103 -87 -39 -343 100 -398 54 -22 90 -13 128 29 131
150 -81 493 -228 369z"/>
<path d="M10066 5649 c-34 -40 -40 -65 -34 -153 9 -145 112 -278 215 -278 116
0 141 202 44 354 -67 105 -172 141 -225 77z"/>
<path d="M8026 5589 c-34 -40 -40 -65 -34 -153 9 -145 112 -278 215 -278 116
0 141 202 44 354 -67 105 -172 141 -225 77z"/>
<path d="M9352 5580 c-106 -65 -40 -264 113 -336 154 -73 262 30 191 182 -30
65 -85 120 -150 150 -62 29 -111 30 -154 4z"/>
<path d="M7312 5520 c-106 -65 -40 -264 113 -336 154 -73 262 30 191 182 -30
65 -85 120 -150 150 -62 29 -111 30 -154 4z"/>
<path d="M9773 5270 c-62 -38 -67 -53 -68 -249 -1 -97 -7 -215 -15 -262 -13
-83 -13 -87 9 -133 29 -59 78 -97 135 -103 65 -8 92 2 150 56 87 83 152 117
283 151 142 36 188 210 87 329 -40 47 -164 111 -362 187 -125 49 -171 54 -219
24z"/>
<path d="M7733 5210 c-62 -38 -67 -53 -68 -249 -1 -97 -7 -215 -15 -262 -13
-83 -13 -87 9 -133 29 -59 78 -97 135 -103 65 -8 92 2 150 56 87 83 152 117
283 151 142 36 188 210 87 329 -40 47 -164 111 -362 187 -125 49 -171 54 -219
24z"/>
<path d="M9274 5191 c-84 -51 -58 -203 51 -299 78 -68 172 -89 233 -52 110 67
37 279 -122 351 -54 24 -122 24 -162 0z"/>
<path d="M7234 5131 c-84 -51 -58 -203 51 -299 78 -68 172 -89 233 -52 110 67
37 279 -122 351 -54 24 -122 24 -162 0z"/>
<path d="M9511 3634 c-103 -87 -39 -343 100 -398 54 -22 90 -13 128 29 131
150 -81 493 -228 369z"/>
<path d="M9886 3509 c-34 -40 -40 -65 -34 -153 9 -145 112 -278 215 -278 116
0 141 202 44 354 -67 105 -172 141 -225 77z"/>
<path d="M9172 3440 c-106 -65 -40 -264 113 -336 154 -73 262 30 191 182 -30
65 -85 120 -150 150 -62 29 -111 30 -154 4z"/>
<path d="M11791 3254 c-103 -87 -39 -343 100 -398 54 -22 90 -13 128 29 131
150 -81 493 -228 369z"/>
<path d="M12166 3129 c-34 -40 -40 -65 -34 -153 9 -145 112 -278 215 -278 116
0 141 202 44 354 -67 105 -172 141 -225 77z"/>
<path d="M9593 3130 c-62 -38 -67 -53 -68 -249 -1 -97 -7 -215 -15 -262 -13
-83 -13 -87 9 -133 29 -59 78 -97 135 -103 65 -8 92 2 150 56 87 83 152 117
283 151 142 36 188 210 87 329 -40 47 -164 111 -362 187 -125 49 -171 54 -219
24z"/>
<path d="M11452 3060 c-106 -65 -40 -264 113 -336 154 -73 262 30 191 182 -30
65 -85 120 -150 150 -62 29 -111 30 -154 4z"/>
<path d="M9094 3051 c-84 -51 -58 -203 51 -299 78 -68 172 -89 233 -52 110 67
37 279 -122 351 -54 24 -122 24 -162 0z"/>
<path d="M11873 2750 c-62 -38 -67 -53 -68 -249 -1 -97 -7 -215 -15 -262 -13
-83 -13 -87 9 -133 29 -59 78 -97 135 -103 65 -8 92 2 150 56 87 83 152 117
283 151 142 36 188 210 87 329 -40 47 -164 111 -362 187 -125 49 -171 54 -219
24z"/>
<path d="M11374 2671 c-84 -51 -58 -203 51 -299 78 -68 172 -89 233 -52 110
67 37 279 -122 351 -54 24 -122 24 -162 0z"/>
</g>
</svg>
